<svg width="443" height="452" viewBox="0 0 443 452" fill="none" xmlns="http://www.w3.org/2000/svg">
<path d="M402.926 443.012C282.018 453.973 160.368 453.973 39.4596 443.012C17.6474 441.043 0 421.322 0 399.458V35.7958C0 13.9225 17.6474 -1.80285 39.4596 0.166419C160.368 11.1271 282.018 11.1271 402.926 0.166419C424.738 -1.75482 442.385 13.9225 442.385 35.7958V399.458C442.385 421.322 424.738 441.053 402.926 443.012Z" fill="#145FFF"/>
<path d="M306.347 275.249L302.747 275.14L305.205 277.772C332.189 306.667 359.145 335.025 386.074 362.845C357.996 365.151 329.897 366.869 301.777 367.998C274.815 338.379 247.853 308.215 220.89 277.507L220.442 276.997L219.764 276.997C207.336 276.99 194.909 276.865 182.482 276.622L180.948 276.592L180.953 278.126L181.208 369.215C156.707 368.726 132.221 367.792 107.749 366.414V213.024C126.378 214.081 145.03 214.874 163.707 215.404L167.093 215.5L164.889 212.928C128.672 170.683 92.5044 127.466 56.3856 83.2778C72.672 84.6071 88.9668 85.744 105.27 86.6886L105.27 86.6886C118.158 87.432 131.052 88.0505 143.953 88.544C196.547 90.5564 249.119 90.5147 301.669 88.419L301.609 86.9203L301.669 88.419C319.345 87.7135 334.171 93.0336 346.264 104.502C358.362 115.976 364.413 130.274 364.413 147.679L364.413 147.685C364.49 168.086 364.56 188.487 364.624 208.887C364.538 226.22 360.372 242.018 349.641 254.281L349.641 254.281C331.676 274.819 310.555 275.376 306.347 275.249ZM291.305 207.852L291.305 207.845L291.363 160.756C291.363 160.755 291.363 160.753 291.363 160.751C291.37 159.801 291.184 158.86 290.815 157.984C290.445 157.107 289.9 156.314 289.213 155.656C288.527 154.997 287.713 154.485 286.821 154.153C285.934 153.822 284.99 153.675 284.044 153.721C254.815 154.636 225.58 154.911 196.338 154.547L192.941 154.504L195.198 157.043C212.744 176.778 230.267 196.276 247.767 215.538L248.222 216.038L248.897 216.029C257.317 215.92 265.737 215.75 274.157 215.519L274.158 215.519L284.09 215.241L284.091 215.241C286.017 215.185 287.844 214.383 289.19 213.004C290.536 211.626 291.294 209.779 291.305 207.852Z" fill="#FCFDFF" stroke="#FCFDFF" stroke-width="3"/>
</svg>
